0
SECTION
2
HEADER
9
$INSUNITS
70
4
9
$ACADVER
1
AC1014
9
$HANDSEED
5
FFFF
0
ENDSEC
0
SECTION
2
TABLES
0
TABLE
2
VPORT
5
8
100
AcDbSymbolTable
0
ENDTAB
0
TABLE
2
LTYPE
5
5
100
AcDbSymbolTable
0
LTYPE
5
14
100
AcDbSymbolTableRecord
100
AcDbLinetypeTableRecord
2
BYBLOCK
70
0
0
LTYPE
5
15
100
AcDbSymbolTableRecord
100
AcDbLinetypeTableRecord
2
BYLAYER
70
0
0
ENDTAB
0
TABLE
2
LAYER
5
2
100
AcDbSymbolTable
70
2
0
LAYER
5
50
100
AcDbSymbolTableRecord
100
AcDbLayerTableRecord
2
0
70
0
6
CONTINUOUS
0
ENDTAB
0
TABLE
2
STYLE
5
3
100
AcDbSymbolTable
70
1
0
STYLE
5
11
100
AcDbSymbolTableRecord
100
AcDbTextStyleTableRecord
2
STANDARD
70
0
0
ENDTAB
0
TABLE
2
VIEW
5
6
100
AcDbSymbolTable
70
0
0
ENDTAB
0
TABLE
2
UCS
5
7
100
AcDbSymbolTable
70
0
0
ENDTAB
0
TABLE
2
APPID
5
9
100
AcDbSymbolTable
70
2
0
APPID
5
12
100
AcDbSymbolTableRecord
100
AcDbRegAppTableRecord
2
ACAD
70
0
0
ENDTAB
0
TABLE
2
DIMSTYLE
5
A
100
AcDbSymbolTable
70
1
0
ENDTAB
0
TABLE
2
BLOCK_RECORD
5
1
100
AcDbSymbolTable
70
1
0
BLOCK_RECORD
5
1F
100
AcDbSymbolTableRecord
100
AcDbBlockTableRecord
2
*MODEL_SPACE
0
BLOCK_RECORD
5
1B
100
AcDbSymbolTableRecord
100
AcDbBlockTableRecord
2
*PAPER_SPACE
0
ENDTAB
0
ENDSEC
0
SECTION
2
BLOCKS
0
BLOCK
5
20
100
AcDbEntity
100
AcDbBlockBegin
2
*MODEL_SPACE
0
ENDBLK
5
21
100
AcDbEntity
100
AcDbBlockEnd
0
BLOCK
5
1C
100
AcDbEntity
100
AcDbBlockBegin
2
*PAPER_SPACE
0
ENDBLK
5
1D
100
AcDbEntity
100
AcDbBlockEnd
0
ENDSEC
0
SECTION
2
ENTITIES
0
CIRCLE
5
100
100
AcDbEntity
8
0
100
AcDbCircle
10
-55
20
41.999999999999993
30
0
40
1.6000000000000016
210
-8.4825750105812171e-34
220
-1.6336845218389237e-67
230
1
0
CIRCLE
5
101
100
AcDbEntity
8
0
100
AcDbCircle
10
-55
20
100
30
-1.1102230246251565e-15
40
1.6000000000000016
210
-1.1243303473546967e-33
220
-1.8622280756841926e-65
230
1
0
CIRCLE
5
102
100
AcDbEntity
8
0
100
AcDbCircle
10
-104
20
41.999999999999993
30
1.1102230246251565e-15
40
1.6000000000000016
210
-8.4825750105812171e-34
220
-1.6336845218389237e-67
230
1
0
CIRCLE
5
103
100
AcDbEntity
8
0
100
AcDbCircle
10
-104
20
100
30
-1.1102230246251565e-15
40
1.6000000000000016
210
-1.1243303473546967e-33
220
-1.8622280756841926e-65
230
1
0
CIRCLE
5
104
100
AcDbEntity
8
0
100
AcDbCircle
10
-161.00000239908695
20
121.98493478544827
30
-9.9920072216264089e-15
40
1.7500000000000073
210
-5.6313663218559823e-34
220
-2.7755575615628907e-17
230
1
0
CIRCLE
5
105
100
AcDbEntity
8
0
100
AcDbCircle
10
-161
20
6.9849347854482478
30
1.1102230246251565e-15
40
1.7500000000000073
210
-8.7718640971360572e-34
220
-2.7755575615628907e-17
230
1
0
CIRCLE
5
106
100
AcDbEntity
8
0
100
AcDbCircle
10
-4.0000000596046448
20
6.9849347854482469
30
0
40
1.7500000000000004
210
-9.1279122036651008e-34
220
-3.5159438885552598e-67
230
1
0
ARC
5
107
100
AcDbEntity
8
0
100
AcDbCircle
10
-4.0000000000000009
20
121.98493478544826
30
-1.1102230246251565e-15
40
1.4649999999999908
210
-3.9150696947827038e-17
220
2.8225669184626141e-18
230
1
100
AcDbArc
50
40.876399058621601
51
139.1236009413735
0
SPLINE
5
108
100
AcDbEntity
8
0
100
AcDbSpline
70
0
71
3
72
18
73
14
74
0
42
0.000000001
43
0.0000000001
44
0.0000000001
40
0
40
0
40
0
40
0
40
0.068814438855469728
40
0.068814438855469728
40
0.13517684179982797
40
0.13517684179982797
40
0.19908626081850667
40
0.19908626081850667
40
0.26054180374223412
40
0.26054180374223412
40
0.29757263158888814
40
0.29757263158888814
40
0.33365745483699238
40
0.33365745483699238
40
0.33365745483699238
40
0.33365745483699238
10
-3.5367518048286213
20
120.24582548118632
30
-5.5511151231257827e-15
10
-3.3214324674013573
20
120.32490416623993
30
-5.5511151231257827e-15
10
-3.1233267324230281
20
120.44457109192751
30
-5.5511151231257827e-15
10
-2.7912969580840787
20
120.74866225319712
30
-5.5511151231257827e-15
10
-2.6584712704406943
20
120.9278145467225
30
-1.1102230246251565e-15
10
-2.4739063262831285
20
121.32011890981175
30
-1.1102230246251565e-15
10
-2.4211125942384011
20
121.52812522785575
30
-1.1102230246251565e-15
10
-2.4002046376659316
20
121.94447192262254
30
-1.1102230246251565e-15
10
-2.4291538666106907
20
122.14861599547308
30
-5.5511151231257827e-15
10
-2.5380904159839233
20
122.45715664564428
30
-5.5511151231257827e-15
10
-2.5928415506715745
20
122.56782732459284
30
-1.1102230246251565e-15
10
-2.7264544573394636
20
122.77063191401298
30
-5.5511151231257827e-15
10
-2.8041876971838504
20
122.86243567614846
30
-5.5511151231257827e-15
10
-2.8922796555246104
20
122.9436738732273
30
-5.5511151231257827e-15
0
ARC
5
109
100
AcDbEntity
8
0
100
AcDbCircle
10
-4.0000000000000009
20
121.98493478544826
30
-1.1102230246251565e-15
40
1.7997500000000182
210
7.1441701957975956e-18
220
2.6820380496338401e-17
230
1
100
AcDbArc
50
255.08440250811202
51
284.91559749188343
0
SPLINE
5
110
100
AcDbEntity
8
0
100
AcDbSpline
70
0
71
3
72
18
73
14
74
0
42
0.000000001
43
0.0000000001
44
0.0000000001
40
0
40
0
40
0
40
0
40
0.05807213282431227
40
0.05807213282431227
40
0.11859057230664477
40
0.11859057230664477
40
0.18155429106888077
40
0.18155429106888077
40
0.24696221363656523
40
0.24696221363656523
40
0.28910810436793299
40
0.28910810436793299
40
0.33220553229602229
40
0.33220553229602229
40
0.33220553229602229
40
0.33220553229602229
10
-5.1077203444753128
20
122.94367387322735
30
-1.1102230246251565e-15
10
-5.2500213666489426
20
122.8124442048036
30
-1.1102230246251565e-15
10
-5.3647617714797562
20
122.65417983527146
30
-5.5511151231257827e-15
10
-5.5320845406526411
20
122.29563602644339
30
-5.5511151231257827e-15
10
-5.5802013712757939
20
122.09749693313283
30
-5.5511151231257827e-15
10
-5.5997353492733213
20
121.68561223212251
30
3.3306690738754696e-15
10
-5.5678237855200354
20
121.47570574977529
30
-5.5511151231257827e-15
10
-5.4239885625730677
20
121.07149683154496
30
-1.1102230246251565e-15
10
-5.3104958679769263
20
120.88216478689873
30
-1.1102230246251565e-15
10
-5.0702788489568107
20
120.61436140166593
30
-1.1102230246251565e-15
10
-4.9635471768729369
20
120.52144255072727
30
-1.1102230246251565e-15
10
-4.7274938733129508
20
120.36141470335323
30
-5.5511151231257827e-15
10
-4.5986189368532937
20
120.2955420573882
30
-1.1102230246251565e-15
10
-4.4632481951715173
20
120.24582548118637
30
-1.1102230246251565e-15
0
LWPOLYLINE
5
111
100
AcDbEntity
8
0
100
AcDbPolyline
90
4
70
1
43
0.0
10
1.0000000149011545
20
0.60663698310971648
10
1.0000000149011612
20
127.00000189244749
10
-166.00000001490116
20
127.00000189244747
10
-166.00000001490116
20
0.60663698310969849
0
ENDSEC
0
SECTION
2
OBJECTS
0
DICTIONARY
5
C
100
AcDbDictionary
3
ACAD_GROUP
350
D
3
ACAD_MLINESTYLE
350
17
0
DICTIONARY
5
D
100
AcDbDictionary
0
DICTIONARY
5
1A
330
C
100
AcDbDictionary
0
DICTIONARY
5
17
100
AcDbDictionary
0
ENDSEC
0
EOF
